<mxfile host="app.diagrams.net" modified="2024-01-10T07:35:29.612Z" agent="Mozilla/5.0 (Windows NT 10.0; Win64; x64) AppleWebKit/537.36 (KHTML, like Gecko) Chrome/120.0.0.0 Safari/537.36 Edg/120.0.0.0" version="22.1.18" etag="DQBQmP3NjpcTWvkIJWXr" type="github">
  <diagram name="第 1 页" id="AYT9zxgl_5s7IH8N-1_v">
    <mxGraphModel>
      <root>
        <mxCell id="0" />
        <mxCell id="1" parent="0" />
      </root>
    </mxGraphModel>
  </diagram>
</mxfile>
